<?xml version="1.0" standalone="no"?>
<!DOCTYPE svg PUBLIC "-//W3C//DTD SVG 20010904//EN"
 "http://www.w3.org/TR/2001/REC-SVG-20010904/DTD/svg10.dtd">
<svg version="1.0" xmlns="http://www.w3.org/2000/svg"
 width="1151.000000pt" height="1151.000000pt" viewBox="0 0 1151.000000 1151.000000"
 preserveAspectRatio="xMidYMid meet">
<metadata>
Created by potrace 1.11, written by Peter Selinger 2001-2013
</metadata>
<g transform="translate(0.000000,1151.000000) scale(0.100000,-0.100000)"
fill="#000000" stroke="none">
<path d="M3510 10391 c0 -6 4 -13 10 -16 6 -3 7 1 4 9 -7 18 -14 21 -14 7z"/>
<path d="M3474 10273 c4 -7 4 -13 -1 -14 -4 0 -28 -2 -53 -4 -84 -5 -220 -21
-300 -36 -30 -6 -66 -12 -80 -14 -14 -2 -64 -13 -110 -25 -47 -12 -92 -23
-100 -25 -8 -2 -28 -8 -45 -15 -16 -6 -32 -12 -35 -12 -3 0 -16 -5 -30 -10
-13 -5 -32 -7 -42 -5 -10 3 -16 2 -13 -3 3 -4 -5 -11 -18 -15 -12 -4 -24 -9
-27 -10 -13 -7 -50 -17 -56 -15 -4 1 -10 -4 -14 -11 -4 -6 -21 -12 -38 -13
-17 0 -28 -3 -26 -5 2 -3 -60 -37 -138 -76 -79 -39 -181 -95 -228 -124 -47
-29 -94 -58 -104 -64 -11 -7 -26 -18 -35 -25 -67 -55 -135 -100 -144 -95 -6 3
-7 2 -4 -4 3 -5 -4 -18 -16 -28 -64 -54 -143 -122 -160 -138 -10 -10 -23 -15
-29 -11 -6 4 -8 3 -5 -3 4 -6 -27 -46 -68 -89 -42 -44 -86 -94 -98 -111 -12
-18 -28 -33 -35 -33 -6 0 -11 -3 -10 -7 3 -8 -41 -69 -75 -104 -9 -11 -14 -19
-11 -19 3 0 -8 -18 -25 -39 -17 -21 -31 -44 -31 -50 0 -6 -4 -11 -8 -11 -5 0
-15 -12 -23 -27 -32 -63 -67 -112 -74 -105 -5 4 -5 2 -2 -4 3 -6 -1 -24 -10
-40 -9 -16 -39 -75 -68 -132 -28 -56 -55 -99 -59 -95 -4 4 -5 1 -1 -7 3 -9
-13 -59 -35 -113 -22 -54 -40 -104 -40 -111 0 -6 -8 -28 -19 -49 -10 -20 -14
-34 -9 -31 7 4 7 0 0 -12 -5 -11 -20 -57 -32 -104 -12 -47 -24 -92 -27 -100
-4 -8 -5 -18 -5 -22 1 -4 -5 -40 -14 -80 -8 -40 -17 -91 -19 -113 -10 -98 -16
-163 -19 -207 -2 -26 -7 -52 -11 -57 -3 -6 -2 -11 3 -11 12 0 4 -39 -12 -59
-8 -11 -8 -13 1 -8 8 5 12 -19 12 -94 0 -55 3 -105 6 -110 4 -5 0 -9 -7 -9 -8
0 -9 -3 -2 -8 5 -4 11 -25 12 -47 3 -57 13 -139 18 -144 2 -2 -2 -11 -9 -19
-9 -13 -9 -14 1 -8 8 5 12 -3 13 -28 2 -57 4 -70 11 -81 3 -5 9 -30 12 -55 7
-56 49 -219 82 -319 19 -60 21 -77 11 -90 -11 -14 -10 -14 6 -2 18 14 17 15
21 -31 1 -7 7 -19 14 -27 7 -7 11 -20 8 -27 -3 -8 -1 -14 4 -14 5 0 12 -10 16
-22 8 -27 61 -146 74 -168 5 -8 25 -45 44 -82 44 -84 60 -112 66 -118 22 -22
59 -93 54 -103 -4 -7 -4 -9 1 -5 9 9 24 -6 53 -53 12 -20 18 -40 14 -44 -4 -5
-1 -5 6 -1 7 4 15 0 19 -10 3 -10 14 -25 22 -34 9 -10 34 -39 56 -66 76 -92
131 -150 327 -347 109 -110 198 -204 198 -210 0 -5 3 -8 6 -4 7 7 74 -61 74
-76 0 -5 3 -8 6 -5 7 7 234 -221 234 -235 0 -6 3 -8 6 -4 10 9 65 -53 58 -65
-4 -7 -2 -8 4 -4 13 8 92 -67 92 -86 0 -6 3 -9 6 -5 7 7 74 -61 74 -76 0 -5 3
-7 6 -4 10 10 45 -34 37 -46 -3 -6 -1 -7 6 -3 12 8 44 -18 34 -28 -4 -3 -2 -6
4 -6 13 0 353 -338 353 -351 0 -5 5 -9 11 -9 15 0 39 -26 32 -34 -4 -3 -1 -6
4 -6 15 0 83 -67 76 -74 -4 -3 -1 -6 6 -6 17 0 121 -112 114 -123 -3 -6 -1 -7
6 -3 13 8 114 -91 106 -104 -3 -4 3 -7 13 -6 9 0 16 -5 14 -11 -1 -7 2 -13 7
-13 19 0 452 -440 445 -452 -4 -6 -3 -8 4 -4 11 7 669 -643 664 -656 -1 -5 2
-8 8 -8 18 0 341 -331 334 -342 -4 -7 -3 -8 5 -4 7 5 20 -1 30 -13 10 -12 22
-21 27 -21 16 0 41 -35 36 -49 -3 -8 0 -11 6 -7 15 9 55 -31 46 -46 -4 -7 -3
-8 5 -4 12 8 68 -51 63 -67 -1 -5 2 -6 7 -2 6 3 23 -9 38 -26 15 -18 36 -39
45 -47 9 -9 14 -20 11 -25 -3 -6 -2 -7 4 -4 11 7 70 -53 65 -66 -1 -5 1 -6 6
-3 5 3 61 -48 125 -113 64 -64 129 -123 144 -131 15 -8 35 -19 43 -26 58 -44
252 -78 350 -61 93 17 242 86 263 123 4 8 15 14 22 14 8 0 15 3 15 8 0 4 50
58 111 120 98 101 112 112 127 100 15 -11 15 -11 5 3 -11 13 4 33 100 133 94
97 115 114 127 104 12 -11 12 -10 2 3 -9 13 -3 23 36 62 27 26 52 44 57 40 4
-5 5 -3 2 3 -4 7 9 26 28 43 20 17 34 31 32 31 -3 0 18 23 45 50 27 28 54 47
60 44 7 -4 8 -2 4 5 -9 14 283 313 297 304 6 -3 7 -2 4 4 -8 13 37 56 47 46 4
-5 6 -1 4 7 -2 9 3 14 12 12 8 -2 12 0 7 4 -9 9 203 225 215 218 5 -3 7 0 6 8
-2 7 3 12 10 10 8 -1 11 2 8 6 -7 12 28 44 39 35 4 -5 5 -3 2 3 -9 16 68 88
84 79 8 -6 10 -4 4 4 -9 15 63 93 78 84 6 -3 7 -2 4 4 -8 13 57 76 68 66 4 -5
5 -3 2 3 -8 14 156 177 168 167 4 -4 5 -3 2 3 -8 14 146 167 158 157 4 -4 5
-3 2 3 -8 14 172 196 186 187 6 -3 7 -2 4 4 -4 5 4 19 16 30 12 11 35 34 50
52 15 17 33 29 39 25 6 -4 8 -3 5 3 -6 10 96 121 150 163 13 10 24 21 24 24
-1 3 2 6 7 7 4 0 11 7 15 15 5 8 13 12 18 8 5 -3 8 -1 7 5 -4 15 132 152 144
144 6 -3 8 -2 5 4 -8 13 77 96 88 86 4 -5 5 -3 2 3 -8 13 66 87 77 77 4 -5 6
-3 4 3 -4 13 77 106 86 97 3 -4 6 1 6 10 0 9 7 17 15 17 8 0 15 5 15 10 0 13
112 124 123 122 4 -1 7 5 7 14 0 10 5 14 16 10 8 -3 13 -2 9 3 -3 5 11 26 30
47 19 20 35 33 35 29 0 -4 10 5 22 21 34 44 66 74 78 74 5 0 9 6 8 13 -2 6 5
11 15 10 10 0 16 1 13 4 -11 11 16 44 30 39 8 -3 12 -2 9 4 -7 11 49 70 66 70
7 0 10 2 7 6 -9 9 103 115 114 108 6 -4 8 -2 5 3 -7 12 218 243 236 243 5 0 8
2 5 5 -3 3 23 36 58 73 35 37 64 70 64 74 0 5 8 8 17 8 9 0 14 3 11 6 -5 5
112 159 132 174 3 3 10 12 13 20 7 14 158 253 174 275 4 6 9 17 11 25 2 8 8
18 14 21 5 3 9 9 9 13 -2 14 43 95 51 90 4 -3 5 2 2 10 -3 9 3 32 15 51 12 20
21 43 21 51 0 8 4 14 8 14 5 0 9 6 10 13 2 28 70 206 76 199 4 -3 4 1 1 10 -4
9 -2 25 4 36 6 11 13 34 16 53 3 19 10 36 16 37 5 2 7 8 4 12 -3 5 -1 28 5 52
6 24 13 54 15 68 3 14 8 36 11 50 14 59 26 139 25 168 0 12 3 22 7 22 23 0 21
632 -3 669 -3 6 -1 11 6 11 8 0 8 4 -1 15 -7 8 -10 24 -7 35 3 11 1 23 -4 26
-5 3 -9 18 -9 33 0 15 -9 68 -20 119 -11 50 -22 99 -24 109 -1 10 -5 25 -8 33
-3 8 -11 35 -18 60 -7 25 -19 62 -26 83 -8 20 -14 39 -14 42 -1 7 -10 37 -20
60 -4 11 -18 47 -31 80 -12 33 -37 92 -55 130 -18 39 -32 72 -31 75 1 3 -7 19
-19 35 -11 17 -34 56 -49 88 -16 31 -33 57 -37 57 -4 0 -8 5 -8 11 0 15 -134
211 -209 304 -129 161 -327 356 -469 461 -34 25 -59 51 -55 57 3 6 1 7 -6 3
-10 -7 -57 20 -89 51 -7 7 -20 13 -28 13 -8 0 -17 7 -20 15 -4 8 -11 15 -17
15 -6 0 -44 21 -86 46 -42 25 -83 49 -92 54 -60 31 -125 62 -191 90 -42 18
-75 37 -72 42 3 4 -1 5 -9 2 -8 -3 -32 2 -53 11 -64 27 -255 87 -319 101 -11
2 -31 6 -45 9 -14 4 -34 8 -45 10 -11 3 -31 7 -45 11 -14 3 -38 7 -55 10 -16
2 -39 6 -50 8 -11 3 -47 8 -80 11 -33 3 -76 9 -95 12 -49 8 -401 7 -485 -1
-127 -13 -150 -15 -170 -20 -11 -2 -42 -7 -69 -10 -27 -4 -52 -9 -55 -11 -3
-1 -22 -6 -41 -9 -19 -3 -53 -11 -75 -16 -22 -6 -50 -13 -62 -15 -12 -3 -34
-10 -49 -15 -14 -6 -29 -8 -34 -5 -5 3 -10 1 -12 -4 -1 -6 -14 -12 -28 -15
-100 -19 -534 -217 -604 -276 -9 -6 -20 -9 -26 -5 -6 4 -9 2 -8 -3 4 -13 -71
-64 -83 -56 -5 3 -8 0 -7 -8 2 -7 -5 -12 -14 -12 -10 1 -16 -2 -13 -6 7 -11
-54 -52 -67 -44 -7 4 -8 3 -4 -4 4 -6 -6 -19 -21 -29 -15 -10 -35 -25 -44 -35
-9 -10 -19 -18 -23 -18 -7 0 -86 -71 -198 -181 -48 -47 -88 -84 -88 -82 0 3
-12 -9 -26 -26 -14 -17 -31 -28 -36 -24 -6 3 -8 2 -5 -4 4 -5 -6 -22 -21 -36
l-27 -26 -77 79 c-43 44 -74 80 -70 80 3 0 -4 7 -16 16 -12 8 -19 20 -16 26 4
6 3 8 -3 5 -13 -8 -119 91 -115 106 2 7 0 9 -4 5 -9 -10 -106 71 -98 83 3 5 2
9 -3 8 -18 -3 -30 2 -49 19 -10 10 -60 48 -111 84 -51 36 -90 68 -87 70 2 3
-2 5 -8 5 -21 0 -88 44 -82 54 3 5 -3 6 -12 2 -13 -5 -15 -3 -9 7 6 9 4 11 -4
5 -8 -4 -24 1 -39 12 -15 10 -42 25 -59 32 -18 8 -33 17 -33 22 0 5 -3 8 -7 7
-5 -1 -39 12 -78 31 -79 37 -115 53 -162 71 -18 7 -30 17 -26 23 3 5 1 7 -5 3
-6 -3 -66 12 -133 34 -67 22 -128 40 -136 40 -8 0 -11 4 -8 10 3 5 0 7 -8 4
-8 -3 -35 0 -58 6 -24 7 -53 14 -64 16 -11 2 -31 6 -45 9 -42 10 -129 25 -180
32 -19 2 -51 6 -70 9 -19 2 -120 7 -225 10 -117 4 -196 11 -204 18 -11 8 -13
8 -7 -1z m136 -1123 c8 5 18 6 24 3 5 -3 30 -7 55 -7 33 -1 45 -5 43 -14 -1
-8 2 -11 8 -7 6 3 8 10 5 15 -3 4 3 7 12 5 10 -1 17 -8 15 -16 -3 -10 0 -10
12 0 15 12 29 12 126 -5 19 -3 41 -11 49 -17 12 -10 13 -9 6 3 -7 11 -2 10 19
-4 16 -10 26 -14 23 -8 -4 5 4 7 18 4 14 -2 25 -7 25 -11 0 -4 10 -8 23 -8 37
-3 68 -13 63 -21 -2 -4 8 -7 22 -8 32 -1 202 -73 202 -85 0 -5 6 -6 13 -3 8 3
20 -2 27 -11 7 -8 16 -15 21 -15 12 0 113 -62 117 -72 2 -4 10 -8 18 -8 8 0
14 -4 14 -10 0 -5 5 -10 10 -10 20 0 159 -115 154 -128 -2 -8 1 -12 8 -10 13
5 58 -34 58 -51 0 -6 4 -10 8 -8 12 3 92 -84 86 -95 -3 -4 0 -7 8 -6 7 2 12
-3 11 -9 -2 -7 3 -12 10 -10 6 1 11 -4 10 -10 -2 -7 0 -12 5 -12 22 4 19 -5
-14 -41 -20 -22 -42 -37 -48 -33 -6 3 -8 2 -4 -2 10 -10 -212 -236 -224 -229
-5 3 -7 1 -6 -4 2 -5 -15 -29 -37 -54 -37 -41 -68 -78 -128 -153 -64 -80 -197
-309 -197 -341 0 -8 -4 -14 -10 -14 -5 0 -10 -7 -10 -15 0 -8 -9 -34 -19 -58
-47 -104 -88 -269 -108 -432 -4 -33 -6 -64 -5 -68 1 -4 -2 -16 -8 -27 -7 -13
-7 -21 0 -25 6 -4 8 -10 6 -14 -10 -16 -3 -321 7 -339 3 -4 8 -29 11 -56 4
-27 9 -53 12 -58 3 -5 0 -16 -8 -25 -9 -12 -10 -15 0 -9 12 7 20 -4 26 -36 2
-7 6 -31 11 -53 4 -22 10 -44 14 -50 5 -9 46 -123 53 -149 8 -25 138 -277 149
-286 3 -3 24 -32 46 -65 23 -33 51 -70 63 -83 11 -12 18 -27 15 -32 -4 -6 -1
-9 7 -8 7 2 12 -3 10 -10 -1 -8 1 -11 6 -8 12 7 44 -33 37 -45 -4 -5 -2 -8 3
-7 12 4 332 -315 332 -330 0 -6 5 -14 12 -18 7 -5 8 -2 3 7 -4 8 2 4 15 -9
l22 -24 -27 -28 c-16 -16 -33 -27 -38 -23 -6 4 -7 1 -2 -6 7 -12 -32 -48 -47
-44 -4 2 -5 -4 -2 -12 5 -11 2 -13 -12 -8 -12 4 -15 3 -10 -5 4 -7 -10 -28
-36 -51 -35 -33 -45 -38 -58 -28 -13 10 -13 10 -2 -4 10 -14 0 -29 -77 -108
-49 -50 -92 -98 -95 -107 -3 -9 -11 -12 -18 -8 -7 4 -10 4 -6 -1 4 -4 -8 -26
-26 -49 -18 -22 -51 -68 -72 -101 -21 -33 -42 -62 -45 -65 -4 -3 -9 -15 -13
-27 -4 -13 -12 -23 -17 -23 -6 0 -7 -4 -4 -10 3 -5 2 -10 -2 -10 -5 0 -15 -16
-22 -35 -7 -21 -17 -33 -23 -29 -7 5 -9 2 -6 -7 3 -8 -4 -35 -16 -62 l-22 -47
-23 24 c-12 13 -19 26 -14 28 4 3 3 4 -3 2 -15 -3 -70 57 -66 71 2 5 0 7 -4 2
-10 -10 -1724 1705 -1717 1718 4 5 2 7 -2 2 -11 -9 -46 23 -39 35 3 4 1 7 -4
6 -15 -5 -74 61 -66 74 4 6 3 8 -4 5 -11 -8 -85 81 -154 188 -85 131 -210 418
-193 445 3 5 1 10 -6 10 -7 0 -9 10 -7 25 3 13 1 22 -3 19 -5 -3 -9 -3 -9 -1
0 2 -5 29 -10 58 -6 30 -13 72 -17 94 -3 22 -7 42 -9 44 -2 2 2 11 9 19 8 11
9 14 0 9 -7 -5 -12 -1 -12 10 0 10 -2 32 -3 48 -2 17 3 38 11 48 13 16 13 18
1 15 -19 -4 -25 79 -7 100 9 13 9 14 0 8 -8 -4 -13 -2 -13 6 0 8 6 20 13 27 9
10 9 12 0 7 -9 -5 -11 4 -7 36 3 24 7 58 7 76 1 17 4 32 7 32 4 0 5 14 2 30
-3 19 0 30 7 30 7 0 10 4 6 10 -4 7 12 93 30 155 1 6 6 25 10 42 4 18 11 30
16 28 4 -3 11 0 15 6 4 8 3 9 -4 5 -7 -4 -12 -2 -12 3 0 17 53 145 63 152 5 3
8 9 8 13 -3 20 0 26 11 20 6 -4 8 -3 4 4 -7 12 23 82 36 82 5 0 6 5 3 10 -3 6
-1 10 6 10 7 0 10 3 6 6 -7 8 78 143 105 167 11 9 17 17 13 17 -4 0 -2 7 5 15
7 8 17 12 23 8 5 -3 7 -2 4 4 -5 9 23 47 92 125 13 15 29 25 34 21 6 -3 7 -2
4 4 -7 11 7 24 113 112 72 60 222 161 239 161 6 0 11 5 11 11 0 6 9 9 20 6 11
-3 18 -2 15 2 -6 10 122 73 151 75 12 0 20 3 18 5 -7 7 57 31 67 25 5 -3 9 -1
9 5 0 8 39 21 67 23 5 0 18 4 31 9 12 5 33 11 45 14 74 16 127 26 167 30 25 2
45 4 45 5 0 8 132 6 143 -2 7 -6 12 -7 11 -2 -3 20 2 26 14 16 8 -7 18 -7 27
-2z m4540 -24 c158 -27 171 -30 166 -42 -3 -8 -1 -16 5 -19 5 -4 8 -1 7 7 -2
8 6 13 22 12 40 -2 42 -3 34 -16 -6 -10 -5 -10 8 -1 8 7 18 9 22 5 4 -4 11 -7
14 -8 20 -2 92 -28 92 -33 0 -4 10 -8 22 -8 34 -3 253 -117 251 -131 -2 -6 3
-9 11 -6 7 3 20 -1 27 -8 8 -8 22 -17 31 -21 11 -4 16 -13 12 -24 -5 -15 -4
-16 6 -3 9 11 13 12 17 3 2 -7 9 -13 14 -13 10 0 40 -23 81 -62 15 -14 28 -25
28 -22 0 2 13 -8 30 -22 16 -15 27 -31 23 -37 -3 -6 -2 -7 4 -4 13 8 125 -111
117 -124 -3 -5 -2 -8 3 -7 11 4 53 -34 53 -48 0 -7 4 -14 9 -16 29 -11 208
-319 196 -338 -3 -6 -1 -10 5 -10 7 0 9 -7 6 -16 -3 -8 -2 -13 3 -10 11 7 33
-53 24 -67 -3 -6 -1 -7 5 -3 7 4 13 0 14 -11 2 -28 4 -36 17 -67 6 -16 9 -36
7 -43 -3 -8 -1 -11 4 -8 6 3 10 -4 11 -17 0 -13 2 -30 4 -38 19 -75 25 -104
31 -160 4 -36 8 -98 8 -137 1 -40 5 -73 9 -73 4 0 3 -8 -2 -18 -5 -10 -6 -24
-1 -32 4 -7 4 -23 0 -36 -5 -12 -6 -25 -2 -29 3 -3 0 -10 -8 -15 -9 -6 -10
-10 -3 -10 13 0 11 -18 -19 -182 -12 -65 -25 -118 -30 -118 -5 0 -7 -4 -4 -9
6 -9 -17 -97 -41 -151 -8 -19 -19 -44 -23 -55 -50 -120 -102 -209 -115 -198
-4 5 -5 2 -1 -5 11 -19 -84 -160 -105 -155 -4 2 -6 -3 -4 -10 6 -13 -15 -39
-116 -145 -40 -41 -75 -70 -81 -66 -6 4 -8 3 -5 -4 9 -13 -152 -174 -166 -165
-5 3 -7 1 -4 -4 9 -14 -371 -395 -385 -387 -6 4 -8 2 -4 -4 8 -14 -203 -224
-217 -215 -6 3 -7 1 -3 -6 10 -15 -210 -234 -226 -225 -7 4 -8 3 -4 -4 8 -13
-802 -827 -812 -817 -4 4 -7 10 -7 13 -1 4 -9 22 -18 40 -10 18 -15 36 -12 41
2 5 -2 12 -11 15 -13 5 -14 9 -5 20 9 11 8 14 -5 12 -9 0 -18 7 -20 17 -1 10
-10 27 -20 38 -9 10 -13 19 -8 19 5 0 4 4 -1 8 -6 4 -28 34 -50 67 -21 33 -42
62 -47 63 -4 2 -8 8 -8 13 0 5 -8 18 -17 30 -41 49 -102 116 -151 166 -29 30
-50 59 -46 65 4 7 3 8 -4 4 -6 -4 -40 24 -79 65 -37 39 -87 90 -110 112 -34
32 -40 43 -31 54 6 8 17 12 25 9 8 -4 11 -1 7 5 -8 13 36 60 49 52 6 -3 7 -2
4 4 -7 11 46 66 56 58 4 -3 5 -2 2 2 -7 9 25 42 38 39 7 -2 8 -1 4 2 -5 2 -1
13 9 23 9 10 21 16 26 13 4 -3 7 0 6 8 -2 7 5 12 14 12 9 -1 15 4 12 10 -2 6
21 36 52 66 31 30 72 74 91 97 20 23 40 40 46 36 6 -4 7 -1 2 7 -5 8 -2 17 6
24 8 6 31 37 53 68 21 32 42 55 46 53 5 -3 12 0 16 6 4 8 3 9 -4 5 -7 -4 -12
-3 -12 3 0 5 5 13 10 16 6 3 19 25 30 48 30 62 57 107 61 103 2 -3 5 8 6 22 0
15 6 28 12 30 6 2 11 10 11 18 0 9 4 12 10 9 5 -3 7 0 4 8 -3 8 5 38 16 68 29
73 57 157 66 199 4 19 8 37 9 40 1 3 4 19 8 35 32 144 45 364 31 530 -4 44 -8
94 -8 112 -1 17 -5 29 -9 26 -5 -3 -7 10 -6 29 2 18 -1 39 -5 46 -12 20 -35
125 -30 134 3 5 1 8 -4 8 -4 0 -16 28 -27 63 -10 34 -22 67 -27 74 -5 7 -7 17
-3 23 3 5 2 10 -3 10 -5 0 -12 8 -14 18 -3 9 -6 20 -7 24 -1 4 -17 35 -36 69
-19 33 -35 63 -35 65 0 2 -11 22 -25 45 -14 22 -23 45 -19 51 4 6 3 8 -3 5 -6
-4 -25 17 -44 46 -18 28 -52 75 -76 103 -23 29 -40 55 -37 58 2 3 1 4 -2 1 -6
-4 -34 19 -34 28 0 3 -40 44 -89 93 -49 48 -87 92 -85 96 3 5 0 7 -8 6 -7 -2
-12 3 -11 9 2 7 -3 12 -10 10 -6 -1 -11 4 -9 11 1 8 -2 11 -7 8 -10 -7 -107
100 -104 114 2 5 -4 7 -12 4 -8 -4 -15 -1 -15 6 0 6 -9 19 -21 29 -20 16 -20
17 -1 39 11 12 24 22 31 22 6 0 11 7 11 15 0 10 7 15 18 13 12 -2 16 3 14 16
-3 14 1 17 13 12 9 -3 14 -2 11 2 -7 12 123 144 135 137 5 -3 6 1 3 9 -3 9 -1
16 5 16 7 0 23 12 36 26 14 15 29 23 36 18 7 -4 9 -3 6 3 -9 14 19 37 33 28 6
-4 9 -1 8 7 -2 7 3 12 10 10 8 -1 11 2 8 7 -3 4 12 20 34 35 22 14 40 24 40
21 0 -3 10 4 23 15 31 30 62 46 52 28 -3 -7 1 -4 10 7 9 11 21 19 26 17 5 -1
9 3 9 10 0 6 3 8 7 5 3 -4 13 -1 22 7 9 8 19 15 23 16 4 0 37 14 74 31 36 17
68 28 71 25 3 -3 12 2 20 10 9 8 22 13 29 10 8 -3 14 -2 14 2 0 10 85 33 127
35 17 1 29 5 26 10 -2 4 2 7 9 8 7 0 20 2 28 4 40 8 99 17 139 21 24 2 46 6
48 8 6 6 331 -1 373 -8z m-2336 -1528 c-3 -5 0 -7 8 -6 7 2 12 -3 10 -10 -1
-8 2 -11 6 -8 14 8 45 -31 36 -45 -4 -7 -3 -10 4 -5 6 3 18 -1 26 -10 9 -8 13
-20 10 -26 -4 -6 -2 -8 4 -4 6 3 18 -1 26 -10 9 -8 13 -20 10 -26 -4 -6 -2 -8
3 -5 11 7 113 -87 113 -104 0 -5 4 -9 9 -9 14 0 71 -63 71 -77 0 -7 4 -13 10
-13 11 0 41 -55 35 -64 -3 -3 -2 -4 2 -1 8 6 46 -66 58 -110 4 -16 9 -34 11
-40 2 -5 5 -19 8 -30 2 -11 8 -29 12 -39 6 -15 4 -17 -7 -11 -12 8 -12 6 -1
-8 14 -16 19 -188 7 -208 -4 -5 -8 -19 -10 -31 -10 -52 -28 -108 -36 -108 -5
0 -5 -7 -2 -17 5 -12 3 -14 -7 -8 -8 5 -11 4 -6 -3 17 -28 -151 -249 -181
-238 -8 3 -11 1 -8 -4 4 -6 -8 -26 -26 -45 -27 -28 -35 -32 -48 -22 -14 10
-14 10 -4 -4 10 -13 6 -21 -24 -50 -20 -19 -41 -33 -46 -31 -5 1 -6 -1 -3 -6
8 -13 -68 -84 -80 -75 -5 5 -6 4 -2 -1 4 -5 3 -15 -3 -22 -9 -11 -21 -4 -60
33 -26 25 -45 51 -42 56 3 6 2 7 -4 4 -14 -9 -276 260 -267 274 4 7 3 9 -4 5
-13 -8 -44 33 -35 47 3 6 1 7 -5 3 -6 -3 -16 7 -24 24 -7 16 -16 30 -19 30 -4
0 -10 10 -14 23 -9 28 -11 33 -30 86 -9 24 -14 50 -11 57 3 7 0 14 -6 16 -6 2
-13 49 -15 112 -4 85 -3 110 8 117 11 7 11 9 1 9 -9 0 -11 7 -7 19 5 18 13 48
19 79 1 8 9 18 17 23 9 5 10 9 2 9 -9 0 -8 8 3 28 7 15 14 33 14 40 0 7 4 10
10 7 6 -3 7 1 4 9 -3 9 -1 16 6 16 6 0 8 5 5 10 -3 6 -1 10 4 10 6 0 11 5 11
11 0 19 63 99 77 99 8 0 12 4 9 9 -3 5 8 19 24 32 16 13 30 29 31 34 0 6 27
33 59 60 32 28 59 55 59 60 1 10 39 39 53 40 3 0 10 4 15 9 5 5 3 6 -4 2 -7
-4 -13 -3 -13 2 0 5 11 15 25 22 13 7 22 17 19 22 -3 4 0 9 5 9 6 1 15 2 21 3
5 0 15 8 22 16 11 12 11 12 -4 1 -11 -8 -18 -9 -18 -3 0 6 6 12 13 15 15 5 68
-42 61 -55z m-33 -3117 c13 -12 18 -25 14 -32 -5 -8 -4 -10 3 -5 15 9 65 -41
56 -56 -4 -7 -3 -8 4 -4 6 4 19 -3 29 -15 10 -12 24 -27 31 -33 56 -48 102
-101 98 -112 -3 -7 0 -16 6 -20 7 -4 8 -3 4 4 -4 7 -1 12 8 12 8 0 17 -9 21
-19 3 -11 12 -22 20 -25 8 -3 15 -10 15 -16 0 -6 -5 -8 -12 -4 -7 4 -8 3 -4
-5 4 -6 11 -9 16 -6 13 8 91 -136 86 -158 -2 -10 0 -14 7 -10 6 4 8 -2 5 -15
-4 -12 -3 -20 2 -17 21 13 46 -213 26 -227 -7 -5 -7 -8 -1 -8 6 0 9 -19 7 -45
-2 -25 -8 -45 -12 -45 -5 0 -6 -9 -3 -20 3 -12 0 -20 -6 -20 -7 0 -10 -4 -6
-10 7 -12 -5 -61 -14 -55 -4 2 -7 -6 -7 -18 1 -12 -4 -21 -11 -20 -7 2 -10 -4
-7 -12 7 -18 -37 -99 -82 -150 -79 -89 -126 -135 -136 -135 -6 0 -9 -3 -5 -6
7 -8 -81 -94 -96 -94 -6 0 -7 -3 -4 -7 4 -3 -6 -16 -22 -27 -15 -12 -29 -25
-29 -29 -1 -4 -8 -14 -15 -22 -11 -11 -17 -11 -26 -2 -9 9 -11 8 -5 -7 4 -10
2 -21 -5 -26 -16 -9 -214 187 -205 202 4 6 2 8 -4 4 -13 -8 -44 22 -36 35 3 5
2 9 -3 8 -19 -3 -33 2 -33 12 0 6 -14 22 -30 36 -23 19 -29 31 -25 47 5 15 4
17 -3 7 -12 -16 -27 3 -16 21 4 7 3 8 -5 4 -6 -4 -14 0 -18 11 -4 10 -11 21
-17 25 -8 5 -7 14 3 30 13 21 13 22 -2 10 -14 -12 -18 -9 -30 20 -24 58 -39
109 -41 142 -2 18 -6 38 -10 44 -4 7 -7 27 -6 45 1 17 1 37 0 42 -5 26 3 81
13 87 9 5 9 8 1 8 -7 0 -9 10 -6 25 2 14 8 22 12 20 5 -3 12 -1 15 5 4 6 3 9
-2 8 -4 -2 -8 2 -8 7 0 6 4 9 9 7 5 -2 4 3 -2 11 -16 19 -3 30 17 15 10 -8 9
-4 -3 10 -12 13 -14 22 -7 22 7 0 9 5 6 10 -3 6 -3 16 2 23 4 6 8 14 9 17 4
22 18 39 27 33 6 -3 7 -1 3 6 -10 15 53 113 67 104 5 -3 7 -1 4 5 -4 5 38 57
93 113 55 57 100 108 100 113 0 6 7 1 15 -10 14 -19 14 -19 9 1 -5 24 81 119
99 108 7 -3 9 -2 4 2 -6 7 19 45 30 45 2 0 13 -9 24 -19z"/>
<path d="M3875 9081 c-3 -5 -2 -12 3 -15 5 -3 9 1 9 9 0 17 -3 19 -12 6z"/>
<path d="M3166 9072 c-3 -5 1 -9 9 -9 8 0 12 4 9 9 -3 4 -7 8 -9 8 -2 0 -6 -4
-9 -8z"/>
<path d="M3325 9070 c-3 -6 1 -7 9 -4 18 7 21 14 7 14 -6 0 -13 -4 -16 -10z"/>
<path d="M3996 9028 c3 -5 10 -6 15 -3 13 9 11 12 -6 12 -8 0 -12 -4 -9 -9z"/>
<path d="M4075 9030 c3 -5 8 -10 11 -10 2 0 4 5 4 10 0 6 -5 10 -11 10 -5 0
-7 -4 -4 -10z"/>
<path d="M4146 9028 c3 -5 10 -6 15 -3 13 9 11 12 -6 12 -8 0 -12 -4 -9 -9z"/>
<path d="M3155 8950 c3 -5 8 -10 11 -10 2 0 4 5 4 10 0 6 -5 10 -11 10 -5 0
-7 -4 -4 -10z"/>
<path d="M2713 8845 c0 -8 4 -12 9 -9 5 3 6 10 3 15 -9 13 -12 11 -12 -6z"/>
<path d="M4516 8837 c3 -10 9 -15 12 -12 3 3 0 11 -7 18 -10 9 -11 8 -5 -6z"/>
<path d="M4596 8743 c-6 -14 -5 -15 5 -6 7 7 10 15 7 18 -3 3 -9 -2 -12 -12z"/>
<path d="M4396 8708 c3 -5 10 -6 15 -3 13 9 11 12 -6 12 -8 0 -12 -4 -9 -9z"/>
<path d="M4756 8597 c3 -10 9 -15 12 -12 3 3 0 11 -7 18 -10 9 -11 8 -5 -6z"/>
<path d="M4400 5790 c-9 -6 -10 -10 -3 -10 6 0 15 5 18 10 8 12 4 12 -15 0z"/>
<path d="M4759 5478 c-5 -18 -6 -38 -1 -34 7 8 12 36 6 36 -2 0 -4 -1 -5 -2z"/>
<path d="M4775 5421 c-3 -5 -2 -12 3 -15 5 -3 9 1 9 9 0 17 -3 19 -12 6z"/>
<path d="M4815 5410 c-3 -5 -1 -10 4 -10 6 0 11 5 11 10 0 6 -2 10 -4 10 -3 0
-8 -4 -11 -10z"/>
<path d="M4810 5370 c0 -5 5 -10 11 -10 5 0 7 5 4 10 -3 6 -8 10 -11 10 -2 0
-4 -4 -4 -10z"/>
<path d="M4815 5330 c3 -5 8 -10 11 -10 2 0 4 5 4 10 0 6 -5 10 -11 10 -5 0
-7 -4 -4 -10z"/>
<path d="M4893 5314 c0 -8 3 -12 5 -9 3 3 11 0 19 -7 7 -6 15 -9 17 -7 2 2 -6
12 -18 21 -18 13 -23 14 -23 2z"/>
<path d="M4810 5290 c0 -5 5 -10 11 -10 5 0 7 5 4 10 -3 6 -8 10 -11 10 -2 0
-4 -4 -4 -10z"/>
<path d="M4896 5277 c3 -10 9 -15 12 -12 3 3 0 11 -7 18 -10 9 -11 8 -5 -6z"/>
<path d="M4779 5258 c-5 -18 -6 -38 -1 -34 7 8 12 36 6 36 -2 0 -4 -1 -5 -2z"/>
<path d="M4810 5249 c0 -5 5 -7 10 -4 6 3 10 8 10 11 0 2 -4 4 -10 4 -5 0 -10
-5 -10 -11z"/>
<path d="M4550 5230 c0 -5 5 -10 11 -10 5 0 7 5 4 10 -3 6 -8 10 -11 10 -2 0
-4 -4 -4 -10z"/>
<path d="M4666 5148 c3 -5 10 -6 15 -3 13 9 11 12 -6 12 -8 0 -12 -4 -9 -9z"/>
<path d="M4549 5073 c-13 -16 -12 -17 4 -4 9 7 17 15 17 17 0 8 -8 3 -21 -13z"/>
<path d="M4356 4683 c-6 -14 -5 -15 5 -6 7 7 10 15 7 18 -3 3 -9 -2 -12 -12z"/>
<path d="M4207 4589 c7 -7 15 -10 18 -7 3 3 -2 9 -12 12 -14 6 -15 5 -6 -5z"/>
<path d="M4250 4556 c0 -2 7 -7 16 -10 8 -3 12 -2 9 4 -6 10 -25 14 -25 6z"/>
<path d="M4215 4490 c-3 -5 -1 -10 4 -10 6 0 11 5 11 10 0 6 -2 10 -4 10 -3 0
-8 -4 -11 -10z"/>
<path d="M4255 4490 c-3 -5 -1 -10 4 -10 6 0 11 5 11 10 0 6 -2 10 -4 10 -3 0
-8 -4 -11 -10z"/>
<path d="M4265 4450 c-3 -6 1 -7 9 -4 18 7 21 14 7 14 -6 0 -13 -4 -16 -10z"/>
<path d="M7630 9090 c0 -5 5 -10 11 -10 5 0 7 5 4 10 -3 6 -8 10 -11 10 -2 0
-4 -4 -4 -10z"/>
<path d="M8230 9091 c0 -6 4 -13 10 -16 6 -3 7 1 4 9 -7 18 -14 21 -14 7z"/>
<path d="M7909 8993 c-13 -16 -12 -17 4 -4 9 7 17 15 17 17 0 8 -8 3 -21 -13z"/>
<path d="M8589 8987 c6 -8 7 -18 3 -22 -4 -5 -1 -5 6 -1 10 6 10 11 1 22 -6 8
-14 14 -16 14 -3 0 0 -6 6 -13z"/>
<path d="M7156 8903 c-6 -14 -5 -15 5 -6 7 7 10 15 7 18 -3 3 -9 -2 -12 -12z"/>
<path d="M7235 8911 c-3 -5 -2 -12 3 -15 5 -3 9 1 9 9 0 17 -3 19 -12 6z"/>
<path d="M7710 8909 c0 -5 5 -7 10 -4 6 3 10 8 10 11 0 2 -4 4 -10 4 -5 0 -10
-5 -10 -11z"/>
<path d="M8630 8909 c0 -5 5 -7 10 -4 6 3 10 8 10 11 0 2 -4 4 -10 4 -5 0 -10
-5 -10 -11z"/>
<path d="M7067 8709 c7 -7 15 -10 18 -7 3 3 -2 9 -12 12 -14 6 -15 5 -6 -5z"/>
<path d="M6619 8463 c-13 -16 -12 -17 4 -4 9 7 17 15 17 17 0 8 -8 3 -21 -13z"/>
<path d="M9070 8436 c0 -2 7 -7 16 -10 8 -3 12 -2 9 4 -6 10 -25 14 -25 6z"/>
<path d="M6680 8410 c-12 -7 -10 -9 7 -7 12 0 19 5 17 9 -6 10 -6 10 -24 -2z"/>
<path d="M6830 8406 c0 -2 8 -10 18 -17 15 -13 16 -12 3 4 -13 16 -21 21 -21
13z"/>
<path d="M6756 8352 c-3 -5 1 -9 9 -9 8 0 12 4 9 9 -3 4 -7 8 -9 8 -2 0 -6 -4
-9 -8z"/>
<path d="M9270 8070 c0 -5 5 -10 11 -10 5 0 7 5 4 10 -3 6 -8 10 -11 10 -2 0
-4 -4 -4 -10z"/>
<path d="M9466 7628 c3 -5 10 -6 15 -3 13 9 11 12 -6 12 -8 0 -12 -4 -9 -9z"/>
<path d="M9510 7310 c0 -5 5 -10 11 -10 5 0 7 5 4 10 -3 6 -8 10 -11 10 -2 0
-4 -4 -4 -10z"/>
<path d="M9549 7273 c-13 -16 -12 -17 4 -4 16 13 21 21 13 21 -2 0 -10 -8 -17
-17z"/>
<path d="M9506 7232 c-3 -5 1 -9 9 -9 8 0 12 4 9 9 -3 4 -7 8 -9 8 -2 0 -6 -4
-9 -8z"/>
<path d="M7310 6189 c0 -5 5 -7 10 -4 6 3 10 8 10 11 0 2 -4 4 -10 4 -5 0 -10
-5 -10 -11z"/>
<path d="M6880 5430 c-9 -6 -10 -10 -3 -10 6 0 15 5 18 10 8 12 4 12 -15 0z"/>
<path d="M6730 5410 c0 -5 5 -10 11 -10 5 0 7 5 4 10 -3 6 -8 10 -11 10 -2 0
-4 -4 -4 -10z"/>
<path d="M6726 5372 c-3 -5 1 -9 9 -9 8 0 12 4 9 9 -3 4 -7 8 -9 8 -2 0 -6 -4
-9 -8z"/>
<path d="M6759 5338 c-5 -18 -6 -38 -1 -34 7 8 12 36 6 36 -2 0 -4 -1 -5 -2z"/>
<path d="M6620 5316 c0 -2 8 -10 18 -17 15 -13 16 -12 3 4 -13 16 -21 21 -21
13z"/>
<path d="M6715 5279 c-4 -6 -5 -12 -2 -15 2 -3 7 2 10 11 7 17 1 20 -8 4z"/>
<path d="M6940 5270 c-9 -6 -10 -10 -3 -10 6 0 15 5 18 10 8 12 4 12 -15 0z"/>
<path d="M6650 5250 c0 -5 5 -10 11 -10 5 0 7 5 4 10 -3 6 -8 10 -11 10 -2 0
-4 -4 -4 -10z"/>
<path d="M6867 5229 c7 -7 15 -10 18 -7 3 3 -2 9 -12 12 -14 6 -15 5 -6 -5z"/>
<path d="M6710 5151 c0 -6 4 -13 10 -16 6 -3 7 1 4 9 -7 18 -14 21 -14 7z"/>
<path d="M6964 4952 c4 -3 14 -7 22 -8 9 -1 13 0 10 4 -4 3 -14 7 -22 8 -9 1
-13 0 -10 -4z"/>
<path d="M5760 7586 c-5 -5 -10 -15 -10 -20 0 -6 5 -3 11 7 6 9 14 15 19 12 5
-3 11 -2 14 3 7 12 -21 11 -34 -2z"/>
<path d="M5709 7553 c-13 -16 -12 -17 4 -4 16 13 21 21 13 21 -2 0 -10 -8 -17
-17z"/>
<path d="M5770 7549 c0 -5 5 -7 10 -4 6 3 10 8 10 11 0 2 -4 4 -10 4 -5 0 -10
-5 -10 -11z"/>
<path d="M5735 7530 c3 -5 8 -10 11 -10 2 0 4 5 4 10 0 6 -5 10 -11 10 -5 0
-7 -4 -4 -10z"/>
<path d="M5775 7501 c-3 -5 -2 -12 3 -15 5 -3 9 1 9 9 0 17 -3 19 -12 6z"/>
<path d="M5694 7486 c1 -8 5 -18 8 -22 4 -3 5 1 4 10 -1 8 -5 18 -8 22 -4 3
-5 -1 -4 -10z"/>
<path d="M5735 7490 c-3 -5 -1 -10 4 -10 6 0 11 5 11 10 0 6 -2 10 -4 10 -3 0
-8 -4 -11 -10z"/>
<path d="M5606 7452 c-3 -5 1 -9 9 -9 8 0 12 4 9 9 -3 4 -7 8 -9 8 -2 0 -6 -4
-9 -8z"/>
<path d="M5779 7458 c-5 -18 -6 -38 -1 -34 7 8 12 36 6 36 -2 0 -4 -1 -5 -2z"/>
<path d="M5895 7451 c-3 -5 -2 -12 3 -15 5 -3 9 1 9 9 0 17 -3 19 -12 6z"/>
<path d="M5795 7401 c-3 -5 -2 -12 3 -15 5 -3 9 1 9 9 0 17 -3 19 -12 6z"/>
<path d="M5556 7392 c-3 -5 1 -9 9 -9 8 0 12 4 9 9 -3 4 -7 8 -9 8 -2 0 -6 -4
-9 -8z"/>
<path d="M5526 7352 c-3 -5 1 -9 9 -9 8 0 12 4 9 9 -3 4 -7 8 -9 8 -2 0 -6 -4
-9 -8z"/>
<path d="M5955 7311 c-3 -5 -2 -12 3 -15 5 -3 9 1 9 9 0 17 -3 19 -12 6z"/>
<path d="M6035 7281 c-3 -5 -2 -12 3 -15 5 -3 9 1 9 9 0 17 -3 19 -12 6z"/>
<path d="M5356 7108 c3 -5 10 -6 15 -3 13 9 11 12 -6 12 -8 0 -12 -4 -9 -9z"/>
<path d="M5385 6830 c-3 -6 1 -7 9 -4 18 7 21 14 7 14 -6 0 -13 -4 -16 -10z"/>
<path d="M5316 6668 c3 -5 10 -6 15 -3 13 9 11 12 -6 12 -8 0 -12 -4 -9 -9z"/>
<path d="M5749 6553 c-13 -16 -12 -17 4 -4 9 7 17 15 17 17 0 8 -8 3 -21 -13z"/>
<path d="M5546 6548 c3 -5 10 -6 15 -3 13 9 11 12 -6 12 -8 0 -12 -4 -9 -9z"/>
<path d="M6150 6556 c0 -2 7 -7 16 -10 8 -3 12 -2 9 4 -6 10 -25 14 -25 6z"/>
<path d="M5493 6395 c0 -8 4 -12 9 -9 5 3 6 10 3 15 -9 13 -12 11 -12 -6z"/>
<path d="M5596 6288 c3 -5 10 -6 15 -3 13 9 11 12 -6 12 -8 0 -12 -4 -9 -9z"/>
<path d="M5747 6289 c7 -7 15 -10 18 -7 3 3 -2 9 -12 12 -14 6 -15 5 -6 -5z"/>
<path d="M5755 4470 c3 -5 8 -10 11 -10 2 0 4 5 4 10 0 6 -5 10 -11 10 -5 0
-7 -4 -4 -10z"/>
<path d="M5755 4440 c-3 -5 -3 -10 2 -10 4 0 1 -5 -7 -11 -10 -7 -11 -9 -2 -7
8 2 13 7 12 12 -1 5 4 13 12 17 9 6 9 9 1 9 -6 0 -15 -4 -18 -10z"/>
<path d="M5795 4380 c0 -16 3 -31 6 -34 3 -3 5 7 5 23 -1 16 -3 32 -6 35 -3 3
-5 -8 -5 -24z"/>
<path d="M5656 4383 c-6 -14 -5 -15 5 -6 7 7 10 15 7 18 -3 3 -9 -2 -12 -12z"/>
<path d="M5733 4383 c0 -9 4 -10 14 -2 7 6 13 12 13 14 0 1 -6 2 -13 2 -8 0
-14 -6 -14 -14z"/>
<path d="M5680 4386 c0 -2 7 -7 16 -10 8 -3 12 -2 9 4 -6 10 -25 14 -25 6z"/>
<path d="M5759 4363 c-13 -16 -12 -17 4 -4 16 13 21 21 13 21 -2 0 -10 -8 -17
-17z"/>
<path d="M5640 4356 c0 -2 8 -10 18 -17 15 -13 16 -12 3 4 -13 16 -21 21 -21
13z"/>
<path d="M5709 4347 c6 -8 7 -18 3 -22 -4 -5 -1 -5 6 -1 10 6 10 11 1 22 -6 8
-14 14 -16 14 -3 0 0 -6 6 -13z"/>
<path d="M5595 4310 c-3 -5 -1 -10 4 -10 6 0 11 5 11 10 0 6 -2 10 -4 10 -3 0
-8 -4 -11 -10z"/>
<path d="M5644 4312 c4 -3 14 -7 22 -8 9 -1 13 0 10 4 -4 3 -14 7 -22 8 -9 1
-13 0 -10 -4z"/>
<path d="M5816 4312 c-3 -4 4 -9 15 -9 23 -2 25 3 4 10 -8 4 -16 3 -19 -1z"/>
<path d="M5860 4316 c0 -2 8 -10 18 -17 15 -13 16 -12 3 4 -13 16 -21 21 -21
13z"/>
<path d="M5570 4286 c0 -2 8 -10 18 -17 15 -13 16 -12 3 4 -13 16 -21 21 -21
13z"/>
<path d="M5539 4263 c-13 -16 -12 -17 4 -4 9 7 17 15 17 17 0 8 -8 3 -21 -13z"/>
<path d="M5653 4265 c0 -8 4 -12 9 -9 4 3 8 9 8 15 0 5 -4 9 -8 9 -5 0 -9 -7
-9 -15z"/>
<path d="M5735 4270 c3 -5 8 -10 11 -10 2 0 4 5 4 10 0 6 -5 10 -11 10 -5 0
-7 -4 -4 -10z"/>
<path d="M5870 4229 c0 -5 5 -7 10 -4 6 3 10 8 10 11 0 2 -4 4 -10 4 -5 0 -10
-5 -10 -11z"/>
<path d="M5735 4210 c3 -5 8 -10 11 -10 2 0 4 5 4 10 0 6 -5 10 -11 10 -5 0
-7 -4 -4 -10z"/>
<path d="M5790 4215 c0 -7 30 -13 34 -7 3 4 -4 9 -15 9 -10 1 -19 0 -19 -2z"/>
<path d="M5915 4199 c-4 -6 -5 -12 -2 -15 2 -3 7 2 10 11 7 17 1 20 -8 4z"/>
<path d="M5660 4196 c0 -2 8 -10 18 -17 15 -13 16 -12 3 4 -13 16 -21 21 -21
13z"/>
<path d="M5759 4183 c-13 -16 -12 -17 4 -4 16 13 21 21 13 21 -2 0 -10 -8 -17
-17z"/>
<path d="M5469 4173 c-13 -16 -12 -17 4 -4 16 13 21 21 13 21 -2 0 -10 -8 -17
-17z"/>
<path d="M5553 4165 c0 -8 4 -12 9 -9 5 3 6 10 3 15 -9 13 -12 11 -12 -6z"/>
<path d="M5794 4172 c4 -3 14 -7 22 -8 9 -1 13 0 10 4 -4 3 -14 7 -22 8 -9 1
-13 0 -10 -4z"/>
<path d="M5855 4169 c-3 -4 2 -6 10 -5 21 3 28 13 10 13 -9 0 -18 -4 -20 -8z"/>
<path d="M5495 4159 c-4 -6 -5 -12 -2 -15 2 -3 7 2 10 11 7 17 1 20 -8 4z"/>
<path d="M5975 4150 c-3 -5 -1 -10 4 -10 6 0 11 5 11 10 0 6 -2 10 -4 10 -3 0
-8 -4 -11 -10z"/>
<path d="M6030 4150 c0 -5 5 -10 11 -10 5 0 7 5 4 10 -3 6 -8 10 -11 10 -2 0
-4 -4 -4 -10z"/>
<path d="M5455 4119 c-4 -6 -14 -8 -24 -4 -13 5 -14 4 -3 -6 10 -11 15 -10 29
4 10 9 14 17 11 17 -4 0 -10 -5 -13 -11z"/>
<path d="M5493 4117 c0 -8 6 -14 14 -14 9 0 10 4 2 14 -6 7 -12 13 -14 13 -1
0 -2 -6 -2 -13z"/>
<path d="M5666 4108 c3 -5 10 -6 15 -3 13 9 11 12 -6 12 -8 0 -12 -4 -9 -9z"/>
<path d="M5393 4097 c0 -8 6 -14 14 -14 9 0 10 4 2 14 -6 7 -12 13 -14 13 -1
0 -2 -6 -2 -13z"/>
<path d="M5519 4083 c-13 -16 -12 -17 4 -4 9 7 17 15 17 17 0 8 -8 3 -21 -13z"/>
<path d="M5594 4079 c-3 -6 -2 -15 3 -20 5 -5 9 -1 9 11 0 23 -2 24 -12 9z"/>
<path d="M5456 4072 c-3 -5 1 -9 9 -9 8 0 12 4 9 9 -3 4 -7 8 -9 8 -2 0 -6 -4
-9 -8z"/>
<path d="M5376 4037 c3 -10 9 -15 12 -12 3 3 0 11 -7 18 -10 9 -11 8 -5 -6z"/>
<path d="M5414 4030 c0 -13 4 -16 10 -10 7 7 7 13 0 20 -6 6 -10 3 -10 -10z"/>
<path d="M5670 4031 c0 -6 4 -13 10 -16 6 -3 7 1 4 9 -7 18 -14 21 -14 7z"/>
<path d="M5725 4030 c-3 -6 1 -7 9 -4 18 7 21 14 7 14 -6 0 -13 -4 -16 -10z"/>
<path d="M5616 4008 c3 -4 11 -5 19 -1 21 7 19 12 -4 10 -11 0 -18 -5 -15 -9z"/>
<path d="M5579 3998 c-5 -18 -6 -38 -1 -34 7 8 12 36 6 36 -2 0 -4 -1 -5 -2z"/>
<path d="M5386 3972 c-2 -4 4 -8 14 -8 10 0 16 4 14 8 -3 4 -9 8 -14 8 -5 0
-11 -4 -14 -8z"/>
<path d="M5335 3960 c-4 -6 -10 -8 -14 -6 -4 3 -8 -1 -8 -9 0 -10 4 -12 12 -5
7 5 14 8 17 5 2 -3 5 2 5 10 0 18 -3 19 -12 5z"/>
<path d="M5335 3919 c-4 -6 -5 -12 -2 -15 2 -3 7 2 10 11 7 17 1 20 -8 4z"/>
<path d="M5356 3912 c-3 -5 1 -9 9 -9 8 0 12 4 9 9 -3 4 -7 8 -9 8 -2 0 -6 -4
-9 -8z"/>
<path d="M5309 3853 c-13 -16 -12 -17 4 -4 9 7 17 15 17 17 0 8 -8 3 -21 -13z"/>
<path d="M5450 3849 c0 -5 5 -7 10 -4 6 3 10 8 10 11 0 2 -4 4 -10 4 -5 0 -10
-5 -10 -11z"/>
<path d="M5390 3846 c0 -2 8 -10 18 -17 15 -13 16 -12 3 4 -13 16 -21 21 -21
13z"/>
<path d="M5454 3806 c1 -8 5 -18 8 -22 4 -3 5 1 4 10 -1 8 -5 18 -8 22 -4 3
-5 -1 -4 -10z"/>
<path d="M5260 3775 c0 -2 6 -8 13 -14 10 -8 14 -7 14 2 0 8 -6 14 -14 14 -7
0 -13 -1 -13 -2z"/>
<path d="M5419 3758 c-5 -18 -6 -38 -1 -34 7 8 12 36 6 36 -2 0 -4 -1 -5 -2z"/>
<path d="M5455 3750 c-3 -5 -1 -10 4 -10 6 0 11 5 11 10 0 6 -2 10 -4 10 -3 0
-8 -4 -11 -10z"/>
<path d="M5265 3730 c-3 -6 1 -7 9 -4 18 7 21 14 7 14 -6 0 -13 -4 -16 -10z"/>
<path d="M6145 3710 c-3 -6 1 -7 9 -4 18 7 21 14 7 14 -6 0 -13 -4 -16 -10z"/>
<path d="M5413 3679 c-2 -23 3 -25 10 -4 4 8 3 16 -1 19 -4 3 -9 -4 -9 -15z"/>
<path d="M5286 3668 c3 -5 10 -6 15 -3 13 9 11 12 -6 12 -8 0 -12 -4 -9 -9z"/>
<path d="M5355 3649 c-3 -4 2 -6 10 -5 21 3 28 13 10 13 -9 0 -18 -4 -20 -8z"/>
<path d="M5335 3531 c-3 -5 -2 -12 3 -15 5 -3 9 1 9 9 0 17 -3 19 -12 6z"/>
<path d="M5586 3332 c-3 -5 1 -9 9 -9 8 0 12 4 9 9 -3 4 -7 8 -9 8 -2 0 -6 -4
-9 -8z"/>
<path d="M5640 3190 c-9 -6 -10 -10 -3 -10 6 0 15 5 18 10 8 12 4 12 -15 0z"/>
<path d="M10673 8345 c0 -8 4 -12 9 -9 5 3 6 10 3 15 -9 13 -12 11 -12 -6z"/>
<path d="M684 7192 c4 -3 14 -7 22 -8 9 -1 13 0 10 4 -4 3 -14 7 -22 8 -9 1
-13 0 -10 -4z"/>
<path d="M796 6557 c3 -10 9 -15 12 -12 3 3 0 11 -7 18 -10 9 -11 8 -5 -6z"/>
<path d="M860 6116 c0 -2 8 -10 18 -17 15 -13 16 -12 3 4 -13 16 -21 21 -21
13z"/>
<path d="M10350 5991 c0 -6 4 -13 10 -16 6 -3 7 1 4 9 -7 18 -14 21 -14 7z"/>
<path d="M10356 5917 c3 -10 9 -15 12 -12 3 3 0 11 -7 18 -10 9 -11 8 -5 -6z"/>
<path d="M10229 5793 c-13 -16 -12 -17 4 -4 9 7 17 15 17 17 0 8 -8 3 -21 -13z"/>
<path d="M1826 5192 c-3 -5 1 -9 9 -9 8 0 12 4 9 9 -3 4 -7 8 -9 8 -2 0 -6 -4
-9 -8z"/>
<path d="M9633 5035 c0 -8 4 -15 9 -15 4 0 8 4 8 9 0 6 -4 12 -8 15 -5 3 -9
-1 -9 -9z"/>
<path d="M9460 4956 c0 -2 8 -10 18 -17 15 -13 16 -12 3 4 -13 16 -21 21 -21
13z"/>
<path d="M1795 4871 c-3 -5 -2 -12 3 -15 5 -3 9 1 9 9 0 17 -3 19 -12 6z"/>
<path d="M2196 4663 c-6 -14 -5 -15 5 -6 7 7 10 15 7 18 -3 3 -9 -2 -12 -12z"/>
<path d="M8833 4275 c0 -8 4 -12 9 -9 5 3 6 10 3 15 -9 13 -12 11 -12 -6z"/>
<path d="M8707 4069 c7 -7 15 -10 18 -7 3 3 -2 9 -12 12 -14 6 -15 5 -6 -5z"/>
<path d="M8547 3909 c7 -7 15 -10 18 -7 3 3 -2 9 -12 12 -14 6 -15 5 -6 -5z"/>
<path d="M2926 3828 c3 -5 10 -6 15 -3 13 9 11 12 -6 12 -8 0 -12 -4 -9 -9z"/>
<path d="M8155 3591 c-3 -5 -2 -12 3 -15 5 -3 9 1 9 9 0 17 -3 19 -12 6z"/>
<path d="M8130 3510 c0 -5 5 -10 11 -10 5 0 7 5 4 10 -3 6 -8 10 -11 10 -2 0
-4 -4 -4 -10z"/>
<path d="M7466 2908 c3 -5 10 -6 15 -3 13 9 11 12 -6 12 -8 0 -12 -4 -9 -9z"/>
<path d="M3790 2876 c0 -2 7 -7 16 -10 8 -3 12 -2 9 4 -6 10 -25 14 -25 6z"/>
<path d="M7395 2871 c-3 -5 -2 -12 3 -15 5 -3 9 1 9 9 0 17 -3 19 -12 6z"/>
<path d="M6873 2425 c0 -8 4 -12 9 -9 5 3 6 10 3 15 -9 13 -12 11 -12 -6z"/>
<path d="M4436 2237 c3 -10 9 -15 12 -12 3 3 0 11 -7 18 -10 9 -11 8 -5 -6z"/>
<path d="M6959 2143 c-13 -16 -12 -17 4 -4 16 13 21 21 13 21 -2 0 -10 -8 -17
-17z"/>
<path d="M6639 1903 c-13 -16 -12 -17 4 -4 16 13 21 21 13 21 -2 0 -10 -8 -17
-17z"/>
<path d="M6396 1783 c-6 -14 -5 -15 5 -6 7 7 10 15 7 18 -3 3 -9 -2 -12 -12z"/>
<path d="M6455 1750 c3 -5 8 -10 11 -10 2 0 4 5 4 10 0 6 -5 10 -11 10 -5 0
-7 -4 -4 -10z"/>
<path d="M6033 1585 c0 -8 4 -12 9 -9 5 3 6 10 3 15 -9 13 -12 11 -12 -6z"/>
<path d="M5629 1313 c-13 -16 -12 -17 4 -4 9 7 17 15 17 17 0 8 -8 3 -21 -13z"/>
</g>
</svg>
