<?xml version="1.0" encoding="utf-8"?>
<!-- Generator: Adobe Illustrator 25.2.1, SVG Export Plug-In . SVG Version: 6.00 Build 0)  -->
<svg version="1.1" id="Layer_1" xmlns="http://www.w3.org/2000/svg" xmlns:xlink="http://www.w3.org/1999/xlink" x="0px" y="0px"
	 viewBox="0 0 1000 1000" style="enable-background:new 0 0 1000 1000;" xml:space="preserve">
<style type="text/css">
	.st0{fill:#FFFFFF;}
</style>
<path class="st0" d="M551.1,75.7C587,33.5,647.7,2.1,697.8,0c6.4,58.7-17.1,117.4-51.9,159.7c-34.8,42.2-91.8,75.1-147.7,70.8
	C490.7,173.1,518.8,113.3,551.1,75.7z M836.1,875.8c-41.6,60.9-84.6,121.5-152.4,122.8c-66.8,1.3-88.2-39.7-164.4-39.7
	c-76.3,0-100.2,38.4-163.2,41c-65.5,2.5-115.3-65.9-157.2-126.5C113.3,749.3,48,522.6,135.8,369.6c43.5-76,121.5-124.1,206-125.3
	c64.4-1.2,125.1,43.5,164.4,43.5c39.4,0,113.2-53.7,190.7-45.8c32.5,1.4,123.6,13.1,182.1,99c-4.6,3-108.8,63.8-107.5,190.4
	c1.3,151.2,132.1,201.5,133.7,202.2C903.9,737.1,884.1,805.4,836.1,875.8L836.1,875.8z"/>
</svg>
