<svg width="288" height="257" viewBox="0 0 288 257" fill="none" xmlns="http://www.w3.org/2000/svg">
<g filter="url(#filter0_d)">
<path d="M267.659 85.9425C267.659 104.461 260.422 121.816 247.377 134.877L232.456 149.817L232.366 149.907L161.155 221.207L161.244 221.118L170.983 211.277C174.914 207.341 178.042 202.689 180.275 197.679C181.258 195.442 182.062 193.116 182.599 190.79C182.688 190.433 182.777 190.075 182.867 189.627C182.956 189.359 182.956 189.18 183.045 188.912C183.224 188.196 183.313 187.48 183.403 186.765C183.492 186.317 183.581 185.87 183.581 185.423V185.333C183.581 185.244 183.581 185.244 183.581 185.154C183.671 184.797 183.671 184.349 183.76 183.991V183.902C183.76 183.634 183.849 183.276 183.849 182.918C183.849 182.828 183.849 182.739 183.849 182.739C183.849 182.65 183.849 182.56 183.849 182.471C183.849 182.381 183.849 182.292 183.849 182.202C183.849 181.934 183.849 181.576 183.849 181.308C183.849 181.218 183.849 181.218 183.849 181.129V181.039C183.849 180.592 183.849 180.145 183.849 179.697C183.849 179.25 183.849 178.892 183.849 178.445V178.266C183.849 177.998 183.849 177.64 183.849 177.282V176.924C183.849 176.566 183.849 176.208 183.76 175.851C183.76 175.761 183.76 175.761 183.76 175.672C183.76 175.493 183.76 175.314 183.671 175.224C183.671 175.135 183.671 175.135 183.671 175.045C183.671 174.777 183.581 174.509 183.581 174.33C183.581 174.061 183.492 173.703 183.492 173.435C183.492 173.167 183.403 172.988 183.403 172.719C183.403 172.63 183.403 172.63 183.403 172.54C183.403 172.272 183.313 172.093 183.313 171.825C183.313 171.735 183.313 171.646 183.224 171.556C183.135 171.199 183.045 170.751 182.956 170.393C182.867 170.036 182.777 169.767 182.777 169.409C182.777 169.409 182.777 169.32 182.777 169.23C182.777 169.141 182.777 169.052 182.688 169.052C182.509 168.425 182.42 167.889 182.241 167.262C182.062 166.726 181.884 166.189 181.705 165.652C181.348 164.578 180.99 163.505 180.543 162.521L227.809 115.196C235.672 107.324 240.05 96.8567 240.05 85.6741C240.05 74.4915 235.672 64.0246 227.809 56.152C219.947 48.2795 209.493 43.9854 198.324 43.9854C187.155 43.9854 176.701 48.2795 168.839 56.152L163.21 61.788L161.065 59.641L158.921 57.4045L148.556 46.6692L146.412 44.4327L144.268 42.1961L149.539 36.9179C162.584 23.8567 179.918 16.6104 198.413 16.6104C198.681 16.6104 198.86 16.6104 199.128 16.6104C216.819 16.7893 234.243 24.0356 246.841 36.3812C260.333 49.6214 267.659 67.1557 267.659 85.9425Z" fill="url(#paint0_linear)"/>
<path d="M267.659 85.9425C267.659 104.461 260.422 121.816 247.377 134.877L232.456 149.817L232.366 149.907L161.155 221.207L161.244 221.118L170.983 211.277C174.914 207.341 178.042 202.689 180.275 197.679C181.258 195.442 182.062 193.116 182.599 190.79C182.688 190.433 182.777 190.075 182.867 189.627C182.956 189.359 182.956 189.18 183.045 188.912C183.224 188.196 183.313 187.48 183.403 186.765C183.492 186.317 183.581 185.87 183.581 185.423V185.333C183.581 185.244 183.581 185.244 183.581 185.154C183.671 184.797 183.671 184.349 183.76 183.991V183.902C183.76 183.634 183.849 183.276 183.849 182.918C183.849 182.828 183.849 182.739 183.849 182.739C183.849 182.65 183.849 182.56 183.849 182.471C183.849 182.381 183.849 182.292 183.849 182.202C183.849 181.934 183.849 181.576 183.849 181.308C183.849 181.218 183.849 181.218 183.849 181.129V181.039C183.849 180.592 183.849 180.145 183.849 179.697C183.849 179.25 183.849 178.892 183.849 178.445V178.266C183.849 177.998 183.849 177.64 183.849 177.282V176.924C183.849 176.566 183.849 176.208 183.76 175.851C183.76 175.761 183.76 175.761 183.76 175.672C183.76 175.493 183.76 175.314 183.671 175.224C183.671 175.135 183.671 175.135 183.671 175.045C183.671 174.777 183.581 174.509 183.581 174.33C183.581 174.061 183.492 173.703 183.492 173.435C183.492 173.167 183.403 172.988 183.403 172.719C183.403 172.63 183.403 172.63 183.403 172.54C183.403 172.272 183.313 172.093 183.313 171.825C183.313 171.735 183.313 171.646 183.224 171.556C183.135 171.199 183.045 170.751 182.956 170.393C182.867 170.036 182.777 169.767 182.777 169.409C182.777 169.409 182.777 169.32 182.777 169.23C182.777 169.141 182.777 169.052 182.688 169.052C182.509 168.425 182.42 167.889 182.241 167.262C182.062 166.726 181.884 166.189 181.705 165.652C181.348 164.578 180.99 163.505 180.543 162.521L227.809 115.196C235.672 107.324 240.05 96.8567 240.05 85.6741C240.05 74.4915 235.672 64.0246 227.809 56.152C219.947 48.2795 209.493 43.9854 198.324 43.9854C187.155 43.9854 176.701 48.2795 168.839 56.152L163.21 61.788L161.065 59.641L158.921 57.4045L148.556 46.6692L146.412 44.4327L144.268 42.1961L149.539 36.9179C162.584 23.8567 179.918 16.6104 198.413 16.6104C198.681 16.6104 198.86 16.6104 199.128 16.6104C216.819 16.7893 234.243 24.0356 246.841 36.3812C260.333 49.6214 267.659 67.1557 267.659 85.9425Z" stroke="white"/>
</g>
<g filter="url(#filter1_d)">
<path d="M136.187 167.682C132.954 170.926 131.158 175.251 131.158 179.847C131.158 184.082 132.684 188.046 135.468 191.2C135.379 191.11 135.289 191.02 135.199 190.93L128.643 184.352L125.051 180.748L111.76 167.322L110.413 165.97L109.335 164.889L107 162.546C109.245 157.14 112.478 152.184 116.699 148.039L124.512 140.2L126.667 142.362L128.823 144.525L139.689 155.428L141.845 157.59L144 159.753L136.187 167.682Z" fill="url(#paint1_linear)"/>
<path d="M136.187 167.682C132.954 170.926 131.158 175.251 131.158 179.847C131.158 184.082 132.684 188.046 135.468 191.2C135.379 191.11 135.289 191.02 135.199 190.93L128.643 184.352L125.051 180.748L111.76 167.322L110.413 165.97L109.335 164.889L107 162.546C109.245 157.14 112.478 152.184 116.699 148.039L124.512 140.2L126.667 142.362L128.823 144.525L139.689 155.428L141.845 157.59L144 159.753L136.187 167.682Z" stroke="white"/>
</g>
<g filter="url(#filter2_d)">
<path d="M126 137.535L127.537 136L147 156.465L145.463 158L126 137.535Z" fill="#7709FC"/>
</g>
<g filter="url(#filter3_d)">
<path d="M136.187 167.482C132.954 170.726 131.158 175.051 131.158 179.647C131.158 183.882 132.684 187.846 135.468 191C135.379 190.91 135.289 190.82 135.199 190.73L128.643 184.152L125.051 180.548L111.76 167.122L110.413 165.77L109.335 164.689L107 162.346C109.245 156.94 112.478 151.984 116.699 147.839L124.512 140L126.667 142.163L128.823 144.325L139.689 155.228L141.845 157.39L144 159.553L136.187 167.482Z" fill="url(#paint2_linear)"/>
<path d="M136.187 167.482C132.954 170.726 131.158 175.051 131.158 179.647C131.158 183.882 132.684 187.846 135.468 191C135.379 190.91 135.289 190.82 135.199 190.73L128.643 184.152L125.051 180.548L111.76 167.122L110.413 165.77L109.335 164.689L107 162.346C109.245 156.94 112.478 151.984 116.699 147.839L124.512 140L126.667 142.163L128.823 144.325L139.689 155.228L141.845 157.39L144 159.553L136.187 167.482Z" stroke="white"/>
</g>
<g filter="url(#filter4_d)">
<path d="M183.822 179.717C183.822 180.167 183.822 180.617 183.822 181.067V181.157C183.822 181.247 183.822 181.247 183.822 181.337C183.822 181.607 183.822 181.967 183.822 182.237C183.822 182.327 183.822 182.417 183.822 182.507C183.822 182.597 183.822 182.687 183.822 182.777C183.822 182.867 183.822 182.957 183.822 182.957C183.822 183.317 183.733 183.587 183.733 183.947V184.037C183.733 184.397 183.644 184.847 183.556 185.207C183.556 185.297 183.556 185.297 183.556 185.387V185.477C183.467 185.927 183.467 186.377 183.378 186.827C183.289 187.547 183.111 188.267 183.022 188.987C182.933 189.257 182.933 189.437 182.844 189.708C182.756 190.068 182.667 190.428 182.578 190.878C181.956 193.218 181.244 195.558 180.267 197.808C178.133 202.848 175.022 207.439 171.022 211.489L161.333 221.389L161.244 221.479L153.956 228.86C151.289 231.56 147.822 233 144.089 233C140.533 233 137.067 231.65 134.489 229.13C134.489 229.13 134.489 229.13 134.4 229.04L121.333 215.809L121.244 215.719C121.244 215.719 128.622 215.449 136.267 207.709C136.444 207.619 136.533 207.439 136.622 207.349L139.822 204.108L141.778 202.128C141.778 202.128 141.778 202.218 141.689 202.218C141.778 202.128 141.778 202.038 141.867 202.038L141.956 201.948L142.044 201.858C142.133 201.768 142.133 201.768 142.222 201.678C142.222 201.678 142.222 201.678 142.133 201.678C142.133 201.678 142.133 201.678 142.044 201.768L144 199.788L151.733 191.958C158.311 185.297 158.311 174.407 151.733 167.746L144 159.916L141.867 157.756L139.733 155.596L128.978 144.705L126.844 142.545L124.711 140.385L116.978 132.554C108.622 124.094 104 112.843 104 100.872C104 88.9016 108.622 77.651 116.978 69.1905L125.067 61L144.089 80.8912L136.356 88.7216C129.778 95.382 129.778 106.273 136.356 112.933L144.089 120.763L146.222 122.924L148.356 125.084L159.111 135.974L161.244 138.134L163.378 140.295L171.111 148.125C175.2 152.265 178.489 157.216 180.711 162.616C181.156 163.696 181.511 164.686 181.867 165.766C182.044 166.306 182.222 166.846 182.4 167.386C182.578 168.016 182.756 168.556 182.844 169.186C182.844 169.276 182.844 169.366 182.933 169.366C182.933 169.366 182.933 169.456 182.933 169.546C183.022 169.906 183.111 170.176 183.111 170.536C183.2 170.896 183.289 171.346 183.378 171.706C183.378 171.796 183.378 171.886 183.467 171.976C183.467 172.246 183.556 172.426 183.556 172.697C183.556 172.787 183.556 172.787 183.556 172.877C183.556 173.147 183.644 173.327 183.644 173.597C183.644 173.867 183.733 174.227 183.733 174.497C183.733 174.767 183.822 175.037 183.822 175.217C183.822 175.307 183.822 175.307 183.822 175.397C183.822 175.577 183.822 175.757 183.911 175.847C183.911 175.937 183.911 175.937 183.911 176.027C183.911 176.387 184 176.747 184 177.107V177.467C184 177.737 184 178.097 184 178.457V178.637C183.822 178.907 183.822 179.267 183.822 179.717Z" fill="url(#paint3_linear)"/>
<path d="M183.822 179.717C183.822 180.167 183.822 180.617 183.822 181.067V181.157C183.822 181.247 183.822 181.247 183.822 181.337C183.822 181.607 183.822 181.967 183.822 182.237C183.822 182.327 183.822 182.417 183.822 182.507C183.822 182.597 183.822 182.687 183.822 182.777C183.822 182.867 183.822 182.957 183.822 182.957C183.822 183.317 183.733 183.587 183.733 183.947V184.037C183.733 184.397 183.644 184.847 183.556 185.207C183.556 185.297 183.556 185.297 183.556 185.387V185.477C183.467 185.927 183.467 186.377 183.378 186.827C183.289 187.547 183.111 188.267 183.022 188.987C182.933 189.257 182.933 189.437 182.844 189.708C182.756 190.068 182.667 190.428 182.578 190.878C181.956 193.218 181.244 195.558 180.267 197.808C178.133 202.848 175.022 207.439 171.022 211.489L161.333 221.389L161.244 221.479L153.956 228.86C151.289 231.56 147.822 233 144.089 233C140.533 233 137.067 231.65 134.489 229.13C134.489 229.13 134.489 229.13 134.4 229.04L121.333 215.809L121.244 215.719C121.244 215.719 128.622 215.449 136.267 207.709C136.444 207.619 136.533 207.439 136.622 207.349L139.822 204.108L141.778 202.128C141.778 202.128 141.778 202.218 141.689 202.218C141.778 202.128 141.778 202.038 141.867 202.038L141.956 201.948L142.044 201.858C142.133 201.768 142.133 201.768 142.222 201.678C142.222 201.678 142.222 201.678 142.133 201.678C142.133 201.678 142.133 201.678 142.044 201.768L144 199.788L151.733 191.958C158.311 185.297 158.311 174.407 151.733 167.746L144 159.916L141.867 157.756L139.733 155.596L128.978 144.705L126.844 142.545L124.711 140.385L116.978 132.554C108.622 124.094 104 112.843 104 100.872C104 88.9016 108.622 77.651 116.978 69.1905L125.067 61L144.089 80.8912L136.356 88.7216C129.778 95.382 129.778 106.273 136.356 112.933L144.089 120.763L146.222 122.924L148.356 125.084L159.111 135.974L161.244 138.134L163.378 140.295L171.111 148.125C175.2 152.265 178.489 157.216 180.711 162.616C181.156 163.696 181.511 164.686 181.867 165.766C182.044 166.306 182.222 166.846 182.4 167.386C182.578 168.016 182.756 168.556 182.844 169.186C182.844 169.276 182.844 169.366 182.933 169.366C182.933 169.366 182.933 169.456 182.933 169.546C183.022 169.906 183.111 170.176 183.111 170.536C183.2 170.896 183.289 171.346 183.378 171.706C183.378 171.796 183.378 171.886 183.467 171.976C183.467 172.246 183.556 172.426 183.556 172.697C183.556 172.787 183.556 172.787 183.556 172.877C183.556 173.147 183.644 173.327 183.644 173.597C183.644 173.867 183.733 174.227 183.733 174.497C183.733 174.767 183.822 175.037 183.822 175.217C183.822 175.307 183.822 175.307 183.822 175.397C183.822 175.577 183.822 175.757 183.911 175.847C183.911 175.937 183.911 175.937 183.911 176.027C183.911 176.387 184 176.747 184 177.107V177.467C184 177.737 184 178.097 184 178.457V178.637C183.822 178.907 183.822 179.267 183.822 179.717Z" stroke="white"/>
</g>
<g filter="url(#filter5_d)">
<path d="M127 58.5349L128.537 57L148 77.4651L146.463 79L127 58.5349Z" fill="#7709FC"/>
</g>
<g filter="url(#filter6_d)">
<path d="M162 64.4651L160.463 66L141 45.5349L142.537 44L162 64.4651Z" fill="#7709FC"/>
</g>
<g filter="url(#filter7_d)">
<path d="M126 186.465L124.463 188L105 167.535L106.537 166L126 186.465Z" fill="#7709FC"/>
</g>
<g filter="url(#filter8_d)">
<path d="M185 101.393C185 113.348 180.322 124.584 171.867 133.034L164.04 140.854L161.882 138.697L159.723 136.539L148.838 125.663L146.679 123.506L144.52 121.348L152.346 113.528C159.003 106.876 159.003 96 152.346 89.3483L148.298 85.3034L144.61 81.4382L129.678 65.9775L127.519 63.7303V63.6404L125.45 61.573L120.052 56C112.136 48.0899 101.522 43.6854 90.1874 43.6854C78.7631 43.6854 68.1484 48 60.1424 56C43.6807 72.4494 43.6807 99.236 60.1424 115.775L107.459 163.056L109.798 165.393L110.877 166.472L112.226 167.82L125.54 181.213L129.138 184.809L135.705 191.371L136.064 191.73V191.82L136.154 191.91L136.334 192.09L136.424 192.18L136.514 192.27L136.604 192.36L144.34 200.09L142.361 202.067C142.361 202.067 142.361 202.067 142.451 201.978C142.451 201.978 142.451 201.978 142.541 201.978C142.451 202.067 142.451 202.067 142.361 202.157L142.271 202.247L142.181 202.337C142.091 202.427 142.091 202.427 142.001 202.517C142.001 202.517 142.001 202.427 142.091 202.427L140.112 204.405L136.874 207.64C136.694 207.82 136.604 207.91 136.514 208C128.778 215.73 121.312 216 121.312 216L116.904 211.596L105.39 200.09L40.4423 135.191C13.1859 107.955 13.1859 63.5506 40.4423 36.3146C53.7556 23.2809 71.3868 16 90.0075 16C108.718 16 126.259 23.2809 139.483 36.4944L139.573 36.5843L144.88 41.9775L147.039 44.2247L149.198 46.4719L159.903 57.5281L162.061 59.7753L164.22 61.9326L168.178 66.0674L171.957 69.8427C180.322 78.2023 185 89.4382 185 101.393Z" fill="url(#paint4_linear)"/>
<path d="M185 101.393C185 113.348 180.322 124.584 171.867 133.034L164.04 140.854L161.882 138.697L159.723 136.539L148.838 125.663L146.679 123.506L144.52 121.348L152.346 113.528C159.003 106.876 159.003 96 152.346 89.3483L148.298 85.3034L144.61 81.4382L129.678 65.9775L127.519 63.7303V63.6404L125.45 61.573L120.052 56C112.136 48.0899 101.522 43.6854 90.1874 43.6854C78.7631 43.6854 68.1484 48 60.1424 56C43.6807 72.4494 43.6807 99.236 60.1424 115.775L107.459 163.056L109.798 165.393L110.877 166.472L112.226 167.82L125.54 181.213L129.138 184.809L135.705 191.371L136.064 191.73V191.82L136.154 191.91L136.334 192.09L136.424 192.18L136.514 192.27L136.604 192.36L144.34 200.09L142.361 202.067C142.361 202.067 142.361 202.067 142.451 201.978C142.451 201.978 142.451 201.978 142.541 201.978C142.451 202.067 142.451 202.067 142.361 202.157L142.271 202.247L142.181 202.337C142.091 202.427 142.091 202.427 142.001 202.517C142.001 202.517 142.001 202.427 142.091 202.427L140.112 204.405L136.874 207.64C136.694 207.82 136.604 207.91 136.514 208C128.778 215.73 121.312 216 121.312 216L116.904 211.596L105.39 200.09L40.4423 135.191C13.1859 107.955 13.1859 63.5506 40.4423 36.3146C53.7556 23.2809 71.3868 16 90.0075 16C108.718 16 126.259 23.2809 139.483 36.4944L139.573 36.5843L144.88 41.9775L147.039 44.2247L149.198 46.4719L159.903 57.5281L162.061 59.7753L164.22 61.9326L168.178 66.0674L171.957 69.8427C180.322 78.2023 185 89.4382 185 101.393Z" stroke="white"/>
</g>
<g filter="url(#filter9_d)">
<path d="M163.5 140.5L162.5 141.5L143.5 122.5L144.5 121.5L163.5 140.5Z" fill="#D554A8"/>
</g>
<path d="M185 101.393C185 113.348 180.322 124.584 171.867 133.034L164.04 140.854L161.882 138.697L159.723 136.539L148.838 125.663L146.679 123.506L144.52 121.348L152.346 113.528C159.003 106.876 159.003 96 152.346 89.3483L148.298 85.3034L144.61 81.4382L129.678 65.9775L127.519 63.7303V63.6404L125.45 61.573L120.052 56C112.136 48.0899 101.522 43.6854 90.1874 43.6854C78.7631 43.6854 68.1484 48 60.1424 56C43.6807 72.4494 43.6807 99.236 60.1424 115.775L107.459 163.056L109.798 165.393L110.877 166.472L112.226 167.82L125.54 181.213L129.138 184.809L135.705 191.371L136.064 191.73V191.82L136.154 191.91L136.334 192.09L136.424 192.18L136.514 192.27L136.604 192.36L144.34 200.09L142.361 202.067C142.361 202.067 142.361 202.067 142.451 201.978C142.451 201.978 142.451 201.978 142.541 201.978C142.451 202.067 142.451 202.067 142.361 202.157L142.271 202.247L142.181 202.337C142.091 202.427 142.091 202.427 142.001 202.517C142.001 202.517 142.001 202.427 142.091 202.427L140.112 204.405L136.874 207.64C136.694 207.82 136.604 207.91 136.514 208C128.778 215.73 121.312 216 121.312 216L116.904 211.596L105.39 200.09L40.4423 135.191C13.1859 107.955 13.1859 63.5506 40.4423 36.3146C53.7556 23.2809 71.3868 16 90.0075 16C108.718 16 126.259 23.2809 139.483 36.4944L139.573 36.5843L144.88 41.9775L147.039 44.2247L149.198 46.4719L159.903 57.5281L162.061 59.7753L164.22 61.9326L168.178 66.0674L171.957 69.8427C180.322 78.2023 185 89.4382 185 101.393Z" fill="url(#paint5_linear)"/>
<path d="M182.822 178.717C182.822 179.167 182.822 179.617 182.822 180.067V180.157C182.822 180.247 182.822 180.247 182.822 180.337C182.822 180.607 182.822 180.967 182.822 181.237C182.822 181.327 182.822 181.417 182.822 181.507C182.822 181.597 182.822 181.687 182.822 181.777C182.822 181.867 182.822 181.957 182.822 181.957C182.822 182.317 182.733 182.587 182.733 182.947V183.037C182.733 183.397 182.644 183.847 182.556 184.207C182.556 184.297 182.556 184.297 182.556 184.387V184.477C182.467 184.927 182.467 185.377 182.378 185.827C182.289 186.547 182.111 187.267 182.022 187.987C181.933 188.257 181.933 188.437 181.844 188.707C181.756 189.068 181.667 189.428 181.578 189.878C180.956 192.218 180.244 194.558 179.267 196.808C177.133 201.848 174.022 206.439 170.022 210.489L160.333 220.389L160.244 220.479L152.956 227.86C150.289 230.56 146.822 232 143.089 232C139.533 232 136.067 230.65 133.489 228.13C133.489 228.13 133.489 228.13 133.4 228.04L120.333 214.809L120.244 214.719C120.244 214.719 127.622 214.449 135.267 206.709C135.444 206.619 135.533 206.439 135.622 206.349L138.822 203.108L140.778 201.128C140.778 201.128 140.778 201.218 140.689 201.218C140.778 201.128 140.778 201.038 140.867 201.038L140.956 200.948L141.044 200.858C141.133 200.768 141.133 200.768 141.222 200.678C141.222 200.678 141.222 200.678 141.133 200.678C141.133 200.678 141.133 200.678 141.044 200.768L143 198.788L150.733 190.958C157.311 184.297 157.311 173.407 150.733 166.746L143 158.916L140.867 156.756L138.733 154.596L127.978 143.705L125.844 141.545L123.711 139.385L115.978 131.554C107.622 123.094 103 111.843 103 99.8723C103 87.9016 107.622 76.651 115.978 68.1905L124.067 60L143.089 79.8912L135.356 87.7216C128.778 94.382 128.778 105.273 135.356 111.933L143.089 119.763L145.222 121.924L147.356 124.084L158.111 134.974L160.244 137.134L162.378 139.295L170.111 147.125C174.2 151.265 177.489 156.216 179.711 161.616C180.156 162.696 180.511 163.686 180.867 164.766C181.044 165.306 181.222 165.846 181.4 166.386C181.578 167.016 181.756 167.556 181.844 168.186C181.844 168.276 181.844 168.366 181.933 168.366C181.933 168.366 181.933 168.456 181.933 168.546C182.022 168.906 182.111 169.176 182.111 169.536C182.2 169.896 182.289 170.346 182.378 170.706C182.378 170.796 182.378 170.886 182.467 170.976C182.467 171.246 182.556 171.426 182.556 171.697C182.556 171.787 182.556 171.787 182.556 171.877C182.556 172.147 182.644 172.327 182.644 172.597C182.644 172.867 182.733 173.227 182.733 173.497C182.733 173.767 182.822 174.037 182.822 174.217C182.822 174.307 182.822 174.307 182.822 174.397C182.822 174.577 182.822 174.757 182.911 174.847C182.911 174.937 182.911 174.937 182.911 175.027C182.911 175.387 183 175.747 183 176.107V176.467C183 176.737 183 177.097 183 177.457V177.637C182.822 177.907 182.822 178.267 182.822 178.717Z" fill="url(#paint6_linear)"/>
<defs>
<filter id="filter0_d" x="124.268" y="0.610352" width="163.392" height="244.597" filterUnits="userSpaceOnUse" color-interpolation-filters="sRGB">
<feFlood flood-opacity="0" result="BackgroundImageFix"/>
<feColorMatrix in="SourceAlpha" type="matrix" values="0 0 0 0 0 0 0 0 0 0 0 0 0 0 0 0 0 0 127 0"/>
<feOffset dy="4"/>
<feGaussianBlur stdDeviation="10"/>
<feColorMatrix type="matrix" values="0 0 0 0 1 0 0 0 0 0.466667 0 0 0 0 0.597484 0 0 0 0.25 0"/>
<feBlend mode="normal" in2="BackgroundImageFix" result="effect1_dropShadow"/>
<feBlend mode="normal" in="SourceGraphic" in2="effect1_dropShadow" result="shape"/>
</filter>
<filter id="filter1_d" x="87" y="124.2" width="77" height="91" filterUnits="userSpaceOnUse" color-interpolation-filters="sRGB">
<feFlood flood-opacity="0" result="BackgroundImageFix"/>
<feColorMatrix in="SourceAlpha" type="matrix" values="0 0 0 0 0 0 0 0 0 0 0 0 0 0 0 0 0 0 127 0"/>
<feOffset dy="4"/>
<feGaussianBlur stdDeviation="10"/>
<feColorMatrix type="matrix" values="0 0 0 0 1 0 0 0 0 0.466667 0 0 0 0 0.597484 0 0 0 0.25 0"/>
<feBlend mode="normal" in2="BackgroundImageFix" result="effect1_dropShadow"/>
<feBlend mode="normal" in="SourceGraphic" in2="effect1_dropShadow" result="shape"/>
</filter>
<filter id="filter2_d" x="116" y="130" width="37" height="38" filterUnits="userSpaceOnUse" color-interpolation-filters="sRGB">
<feFlood flood-opacity="0" result="BackgroundImageFix"/>
<feColorMatrix in="SourceAlpha" type="matrix" values="0 0 0 0 0 0 0 0 0 0 0 0 0 0 0 0 0 0 127 0"/>
<feOffset dx="-2" dy="2"/>
<feGaussianBlur stdDeviation="4"/>
<feColorMatrix type="matrix" values="0 0 0 0 0 0 0 0 0 0 0 0 0 0 0 0 0 0 1 0"/>
<feBlend mode="normal" in2="BackgroundImageFix" result="effect1_dropShadow"/>
<feBlend mode="normal" in="SourceGraphic" in2="effect1_dropShadow" result="shape"/>
</filter>
<filter id="filter3_d" x="87" y="124" width="77" height="91" filterUnits="userSpaceOnUse" color-interpolation-filters="sRGB">
<feFlood flood-opacity="0" result="BackgroundImageFix"/>
<feColorMatrix in="SourceAlpha" type="matrix" values="0 0 0 0 0 0 0 0 0 0 0 0 0 0 0 0 0 0 127 0"/>
<feOffset dy="4"/>
<feGaussianBlur stdDeviation="10"/>
<feColorMatrix type="matrix" values="0 0 0 0 1 0 0 0 0 0.466667 0 0 0 0 0.597484 0 0 0 0.25 0"/>
<feBlend mode="normal" in2="BackgroundImageFix" result="effect1_dropShadow"/>
<feBlend mode="normal" in="SourceGraphic" in2="effect1_dropShadow" result="shape"/>
</filter>
<filter id="filter4_d" x="84" y="45" width="120" height="212" filterUnits="userSpaceOnUse" color-interpolation-filters="sRGB">
<feFlood flood-opacity="0" result="BackgroundImageFix"/>
<feColorMatrix in="SourceAlpha" type="matrix" values="0 0 0 0 0 0 0 0 0 0 0 0 0 0 0 0 0 0 127 0"/>
<feOffset dy="4"/>
<feGaussianBlur stdDeviation="10"/>
<feColorMatrix type="matrix" values="0 0 0 0 1 0 0 0 0 0.466667 0 0 0 0 0.597484 0 0 0 0.25 0"/>
<feBlend mode="normal" in2="BackgroundImageFix" result="effect1_dropShadow"/>
<feBlend mode="normal" in="SourceGraphic" in2="effect1_dropShadow" result="shape"/>
</filter>
<filter id="filter5_d" x="117" y="51" width="37" height="38" filterUnits="userSpaceOnUse" color-interpolation-filters="sRGB">
<feFlood flood-opacity="0" result="BackgroundImageFix"/>
<feColorMatrix in="SourceAlpha" type="matrix" values="0 0 0 0 0 0 0 0 0 0 0 0 0 0 0 0 0 0 127 0"/>
<feOffset dx="-2" dy="2"/>
<feGaussianBlur stdDeviation="4"/>
<feColorMatrix type="matrix" values="0 0 0 0 0 0 0 0 0 0 0 0 0 0 0 0 0 0 1 0"/>
<feBlend mode="normal" in2="BackgroundImageFix" result="effect1_dropShadow"/>
<feBlend mode="normal" in="SourceGraphic" in2="effect1_dropShadow" result="shape"/>
</filter>
<filter id="filter6_d" x="135" y="34" width="37" height="38" filterUnits="userSpaceOnUse" color-interpolation-filters="sRGB">
<feFlood flood-opacity="0" result="BackgroundImageFix"/>
<feColorMatrix in="SourceAlpha" type="matrix" values="0 0 0 0 0 0 0 0 0 0 0 0 0 0 0 0 0 0 127 0"/>
<feOffset dx="2" dy="-2"/>
<feGaussianBlur stdDeviation="4"/>
<feColorMatrix type="matrix" values="0 0 0 0 0 0 0 0 0 0 0 0 0 0 0 0 0 0 1 0"/>
<feBlend mode="normal" in2="BackgroundImageFix" result="effect1_dropShadow"/>
<feBlend mode="normal" in="SourceGraphic" in2="effect1_dropShadow" result="shape"/>
</filter>
<filter id="filter7_d" x="99" y="156" width="37" height="38" filterUnits="userSpaceOnUse" color-interpolation-filters="sRGB">
<feFlood flood-opacity="0" result="BackgroundImageFix"/>
<feColorMatrix in="SourceAlpha" type="matrix" values="0 0 0 0 0 0 0 0 0 0 0 0 0 0 0 0 0 0 127 0"/>
<feOffset dx="2" dy="-2"/>
<feGaussianBlur stdDeviation="4"/>
<feColorMatrix type="matrix" values="0 0 0 0 0 0 0 0 0 0 0 0 0 0 0 0 0 0 0.8 0"/>
<feBlend mode="normal" in2="BackgroundImageFix" result="effect1_dropShadow"/>
<feBlend mode="normal" in="SourceGraphic" in2="effect1_dropShadow" result="shape"/>
</filter>
<filter id="filter8_d" x="0" y="0" width="205" height="240" filterUnits="userSpaceOnUse" color-interpolation-filters="sRGB">
<feFlood flood-opacity="0" result="BackgroundImageFix"/>
<feColorMatrix in="SourceAlpha" type="matrix" values="0 0 0 0 0 0 0 0 0 0 0 0 0 0 0 0 0 0 127 0"/>
<feOffset dy="4"/>
<feGaussianBlur stdDeviation="10"/>
<feColorMatrix type="matrix" values="0 0 0 0 1 0 0 0 0 0.466667 0 0 0 0 0.597484 0 0 0 0.25 0"/>
<feBlend mode="normal" in2="BackgroundImageFix" result="effect1_dropShadow"/>
<feBlend mode="normal" in="SourceGraphic" in2="effect1_dropShadow" result="shape"/>
</filter>
<filter id="filter9_d" x="139.5" y="111.5" width="36" height="36" filterUnits="userSpaceOnUse" color-interpolation-filters="sRGB">
<feFlood flood-opacity="0" result="BackgroundImageFix"/>
<feColorMatrix in="SourceAlpha" type="matrix" values="0 0 0 0 0 0 0 0 0 0 0 0 0 0 0 0 0 0 127 0"/>
<feOffset dx="4" dy="-2"/>
<feGaussianBlur stdDeviation="4"/>
<feColorMatrix type="matrix" values="0 0 0 0 0 0 0 0 0 0 0 0 0 0 0 0 0 0 0.6 0"/>
<feBlend mode="normal" in2="BackgroundImageFix" result="effect1_dropShadow"/>
<feBlend mode="normal" in="SourceGraphic" in2="effect1_dropShadow" result="shape"/>
</filter>
<linearGradient id="paint0_linear" x1="286" y1="197" x2="128.254" y2="175.376" gradientUnits="userSpaceOnUse">
<stop offset="0.00134342" stop-color="#7305FF"/>
<stop offset="1" stop-color="#FF7094"/>
</linearGradient>
<linearGradient id="paint1_linear" x1="107" y1="201.5" x2="169.077" y2="131.253" gradientUnits="userSpaceOnUse">
<stop offset="0.00134342" stop-color="#7305FF"/>
<stop offset="0.817708" stop-color="#AA2FD6"/>
</linearGradient>
<linearGradient id="paint2_linear" x1="32.5" y1="296.8" x2="-13.0841" y2="287.708" gradientUnits="userSpaceOnUse">
<stop offset="0.00134342" stop-color="#7305FF"/>
<stop offset="0.817708" stop-color="#D852B2"/>
</linearGradient>
<linearGradient id="paint3_linear" x1="209.5" y1="303" x2="293.576" y2="163.136" gradientUnits="userSpaceOnUse">
<stop offset="0.00134342" stop-color="#7305FF"/>
<stop offset="0.998396" stop-color="#FF7094"/>
</linearGradient>
<linearGradient id="paint4_linear" x1="71.5" y1="267.5" x2="148.09" y2="324.358" gradientUnits="userSpaceOnUse">
<stop offset="0.00134342" stop-color="#7305FF"/>
<stop offset="1" stop-color="#FF7094"/>
</linearGradient>
<linearGradient id="paint5_linear" x1="71.5" y1="267.5" x2="148.09" y2="324.358" gradientUnits="userSpaceOnUse">
<stop offset="0.00134342" stop-color="#7305FF"/>
<stop offset="1" stop-color="#FF7094"/>
</linearGradient>
<linearGradient id="paint6_linear" x1="208.5" y1="302" x2="292.576" y2="162.136" gradientUnits="userSpaceOnUse">
<stop offset="0.00134342" stop-color="#7305FF"/>
<stop offset="0.998396" stop-color="#FF7094"/>
</linearGradient>
</defs>
</svg>
